<svg width="183" height="40" viewBox="0 0 183 40" fill="none" xmlns="http://www.w3.org/2000/svg">
<path d="M45.1377 11.8659C45.1377 9.33333 45.7499 7.39665 46.9743 6.05586C48.2292 4.68529 50.0964 4 52.5757 4C55.055 4 56.9069 4.68529 58.1312 6.05586C59.3862 7.39665 60.0137 9.33333 60.0137 11.8659V12.8492H55.2387V11.5531C55.2387 10.4209 55.0091 9.63128 54.55 9.18436C54.1215 8.70763 53.5093 8.46927 52.7135 8.46927C51.9176 8.46927 51.2901 8.70763 50.831 9.18436C50.4025 9.63128 50.1882 10.4209 50.1882 11.5531C50.1882 12.6257 50.4331 13.5791 50.9228 14.4134C51.4126 15.2179 52.0248 15.9926 52.7594 16.7374C53.494 17.4525 54.2745 18.1825 55.101 18.9274C55.958 19.6425 56.7538 20.432 57.4885 21.2961C58.2231 22.1601 58.8352 23.1434 59.325 24.2458C59.8147 25.3482 60.0596 26.6443 60.0596 28.1341C60.0596 30.6667 59.4168 32.6182 58.1312 33.9888C56.8763 35.3296 55.0091 36 52.5298 36C50.0505 36 48.168 35.3296 46.8825 33.9888C45.6275 32.6182 45 30.6667 45 28.1341V26.2123H49.775V28.4469C49.775 29.5791 50.0046 30.3687 50.4637 30.8156C50.9534 31.2626 51.5962 31.486 52.3921 31.486C53.1879 31.486 53.8154 31.2626 54.2745 30.8156C54.7643 30.3687 55.0091 29.5791 55.0091 28.4469C55.0091 27.3743 54.7643 26.4358 54.2745 25.6313C53.7848 24.797 53.1726 24.0223 52.438 23.3073C51.7034 22.5624 50.9075 21.8324 50.0505 21.1173C49.224 20.3724 48.4435 19.568 47.7089 18.7039C46.9743 17.8398 46.3621 16.8566 45.8724 15.7542C45.3826 14.6518 45.1377 13.3557 45.1377 11.8659Z" fill="#333333"/>
<path d="M83.8898 35.6425H78.7934L77.921 29.9665H71.7227L70.8503 35.6425H66.2131L71.3554 4.35754H78.7475L83.8898 35.6425ZM72.3655 25.7207H77.2323L74.7989 9.89944L72.3655 25.7207Z" fill="#333333"/>
<path d="M105.435 23.9777V28.1341C105.435 30.6667 104.792 32.6182 103.506 33.9888C102.251 35.3296 100.384 36 97.9048 36C95.4255 36 93.5431 35.3296 92.2575 33.9888C91.0025 32.6182 90.375 30.6667 90.375 28.1341V11.8659C90.375 9.33333 91.0025 7.39665 92.2575 6.05586C93.5431 4.68529 95.4255 4 97.9048 4C100.384 4 102.251 4.68529 103.506 6.05586C104.792 7.39665 105.435 9.33333 105.435 11.8659V14.905H100.66V11.5531C100.66 10.4209 100.415 9.63128 99.925 9.18436C99.4659 8.70763 98.8384 8.46927 98.0426 8.46927C97.2467 8.46927 96.6039 8.70763 96.1142 9.18436C95.6551 9.63128 95.4255 10.4209 95.4255 11.5531V28.4469C95.4255 29.5791 95.6551 30.3687 96.1142 30.8156C96.6039 31.2626 97.2467 31.486 98.0426 31.486C98.8384 31.486 99.4659 31.2626 99.925 30.8156C100.415 30.3687 100.66 29.5791 100.66 28.4469V23.9777H105.435Z" fill="#333333"/>
<path d="M123.65 35.6425C123.589 35.4339 123.528 35.2402 123.467 35.0614C123.406 34.8827 123.344 34.6592 123.283 34.3911C123.253 34.1229 123.222 33.7803 123.191 33.3631C123.191 32.946 123.191 32.4246 123.191 31.7989V26.8827C123.191 25.4227 122.931 24.3948 122.411 23.7989C121.89 23.203 121.049 22.905 119.886 22.905H118.141V35.6425H113.09V4.35754H120.712C123.344 4.35754 125.242 4.95344 126.405 6.14525C127.599 7.33706 128.196 9.13966 128.196 11.5531V14.0112C128.196 17.229 127.094 19.3445 124.89 20.3575C126.176 20.8641 127.048 21.6983 127.507 22.8603C127.997 23.9925 128.242 25.378 128.242 27.0168V31.8436C128.242 32.6182 128.272 33.3035 128.334 33.8994C128.395 34.4655 128.548 35.0466 128.793 35.6425H123.65ZM118.141 8.82681V18.4358H120.115C121.064 18.4358 121.799 18.1974 122.319 17.7207C122.87 17.2439 123.145 16.3799 123.145 15.1285V12.0447C123.145 10.9125 122.931 10.0931 122.503 9.58659C122.105 9.08007 121.462 8.82681 120.574 8.82681H118.141Z" fill="#333333"/>
<path d="M136.155 4.35754H141.205V35.6425H136.155V4.35754Z" fill="#333333"/>
<path d="M149.489 4.35754H154.54V31.1732H162.85V35.6425H149.489V4.35754Z" fill="#333333"/>
<path d="M169.639 4.35754H174.69V31.1732H183V35.6425H169.639V4.35754Z" fill="#333333"/>
<path fill-rule="evenodd" clip-rule="evenodd" d="M22.6896 3.84993C23.1507 4.04623 23.45 4.49891 23.45 5.00003V16.6637H30C30.4445 16.6637 30.8556 16.8997 31.0796 17.2837C31.3036 17.6676 31.3069 18.1416 31.0883 18.5286L30.2682 19.98C27.1579 25.4844 23.1915 30.4588 18.5176 34.7163L17.1918 35.9241C16.8258 36.2575 16.2976 36.3435 15.8449 36.1434C15.3921 35.9434 15.1 35.495 15.1 35V23.4353H8.33331C7.64296 23.4353 7.08331 22.8756 7.08331 22.1853C7.08331 21.9617 7.14202 21.7518 7.24487 21.5702C10.1762 16.1511 13.9291 11.2186 18.3703 6.94827L21.3336 4.09899C21.6948 3.75166 22.2286 3.65363 22.6896 3.84993ZM10.4743 20.9353H16.35C17.0403 20.9353 17.6 21.4949 17.6 22.1853V32.1576C21.631 28.3483 25.0861 23.9711 27.8557 19.1637H22.2C21.5096 19.1637 20.95 18.604 20.95 17.9137V7.93606L20.1031 8.75036C16.3518 12.3574 13.113 16.4574 10.4743 20.9353Z" fill="#333333"/>
</svg>
