<svg width="18" height="16" viewBox="0 0 18 16" fill="none" xmlns="http://www.w3.org/2000/svg">
<path d="M9.72077 0.496882C9.39962 -0.0565768 8.60036 -0.056579 8.27921 0.496882L6.0175 4.39464C5.85886 4.66804 5.58465 4.85462 5.27209 4.90183L1.0335 5.54201C0.321598 5.64954 0.0718816 6.54838 0.626303 7.00771L3.78388 9.62373C4.07616 9.86589 4.2136 10.2479 4.1426 10.6207L3.31662 14.9583C3.18605 15.644 3.90588 16.1768 4.5235 15.8516L8.51467 13.7501C8.81845 13.5901 9.18153 13.5901 9.48531 13.7501L13.4765 15.8516C14.0941 16.1768 14.8139 15.644 14.6834 14.9583L13.8574 10.6207C13.7864 10.2479 13.9238 9.86589 14.2161 9.62373L17.3737 7.00771C17.9281 6.54838 17.6784 5.64954 16.9665 5.54201L12.7279 4.90183C12.4153 4.85462 12.1411 4.66804 11.9825 4.39464L9.72077 0.496882Z" fill="#808080"/>
</svg>
