<svg width="18" height="16" viewBox="0 0 18 16" fill="none" xmlns="http://www.w3.org/2000/svg">
<path d="M9.72077 0.496852C9.39962 -0.0566073 8.60036 -0.0566095 8.27921 0.496851L6.0175 4.39461C5.85886 4.66801 5.58465 4.85459 5.27209 4.90179L1.0335 5.54198C0.321598 5.64951 0.0718816 6.54835 0.626303 7.00768L3.78388 9.6237C4.07616 9.86585 4.2136 10.2478 4.1426 10.6207L3.31662 14.9583C3.18605 15.644 3.90588 16.1768 4.5235 15.8516L8.51467 13.75C8.81845 13.5901 9.18153 13.5901 9.48531 13.75L13.4765 15.8516C14.0941 16.1768 14.8139 15.644 14.6834 14.9583L13.8574 10.6207C13.7864 10.2478 13.9238 9.86585 14.2161 9.6237L17.3737 7.00768C17.9281 6.54835 17.6784 5.64951 16.9665 5.54198L12.7279 4.9018C12.4153 4.85459 12.1411 4.66801 11.9825 4.39461L9.72077 0.496852Z" fill="#FFA51E"/>
</svg>