<svg width="28" height="21" viewBox="0 0 28 21" fill="none" xmlns="http://www.w3.org/2000/svg">
<path d="M2.8745 18.9815C1.3295 17.3405 0.5 15.5 0.5 12.5165C0.5 7.2665 4.1855 2.561 9.545 0.234497L10.8845 2.3015C5.882 5.0075 4.904 8.519 4.514 10.733C5.3195 10.316 6.374 10.1705 7.4075 10.2665C10.1135 10.517 12.2465 12.7385 12.2465 15.5C12.2465 16.8924 11.6934 18.2277 10.7088 19.2123C9.72425 20.1969 8.38889 20.75 6.9965 20.75C5.387 20.75 3.848 20.015 2.8745 18.9815ZM17.8745 18.9815C16.3295 17.3405 15.5 15.5 15.5 12.5165C15.5 7.2665 19.1855 2.561 24.545 0.234497L25.8845 2.3015C20.882 5.0075 19.904 8.519 19.514 10.733C20.3195 10.316 21.374 10.1705 22.4075 10.2665C25.1135 10.517 27.2465 12.7385 27.2465 15.5C27.2465 16.8924 26.6934 18.2277 25.7088 19.2123C24.7242 20.1969 23.3889 20.75 21.9965 20.75C20.387 20.75 18.848 20.015 17.8745 18.9815Z" fill="#333333"/>
</svg>
